<mxfile host="65bd71144e">
    <diagram id="Xnp-sVm7ZSWaiMV7RcT-" name="ページ1">
        <mxGraphModel dx="3211" dy="1369" grid="0" gridSize="10" guides="1" tooltips="1" connect="1" arrows="1" fold="1" page="0" pageScale="1" pageWidth="827" pageHeight="1169" math="0" shadow="0">
            <root>
                <mxCell id="0"/>
                <mxCell id="1" parent="0"/>
                <mxCell id="2" value="" style="rounded=0;whiteSpace=wrap;html=1;" vertex="1" parent="1">
                    <mxGeometry x="-26" y="-95" width="1410" height="718" as="geometry"/>
                </mxCell>
                <mxCell id="3" value="" style="rounded=0;whiteSpace=wrap;html=1;fillColor=#000000;" vertex="1" parent="1">
                    <mxGeometry x="-26" y="-95" width="1411" height="52" as="geometry"/>
                </mxCell>
                <mxCell id="4" value="&lt;font size=&quot;1&quot; color=&quot;#e6e6e6&quot;&gt;&lt;b style=&quot;font-size: 28px&quot;&gt;会社名&lt;/b&gt;&lt;/font&gt;" style="text;html=1;align=center;verticalAlign=middle;resizable=0;points=[];autosize=1;strokeColor=none;" vertex="1" parent="1">
                    <mxGeometry x="-15" y="-81.5" width="94" height="25" as="geometry"/>
                </mxCell>
                <mxCell id="6" value="&lt;font style=&quot;font-size: 20px&quot; color=&quot;#ffffff&quot;&gt;HOME&lt;/font&gt;" style="text;html=1;align=center;verticalAlign=middle;resizable=0;points=[];autosize=1;strokeColor=none;" vertex="1" parent="1">
                    <mxGeometry x="168" y="-77" width="70" height="21" as="geometry"/>
                </mxCell>
                <mxCell id="7" value="" style="shape=image;verticalLabelPosition=bottom;labelBackgroundColor=#ffffff;verticalAlign=top;aspect=fixed;imageAspect=0;image=data:image/png,iVBORw0KGgoAAAANSUhEUgAAABcAAAAeCAYAAADHJYVoAAABfElEQVRIDe2US2vCQBSF/S1BsnThYoops1FIwRIKgRZS6KIK0hSzkQoGNCiYRcS0BJmFhPmtp+TpNBEftEJps7iEZCbfvfecO1OTJAmXitqlwBG3gu/17RfIQntwNxw89DHSGkmVVwP4nINHsR6A7Jm6o5U378YIwhQSwxjcfhvytbmDv5tQzoPLaPddMAFIhETB0kvXOPhZ8DqB4bCk5dCHdaNAHXoIHANKy8CCiZ2cA2+osFbpz5sZjJYCY54mivW1oLaEPdG3kyqPjMuqWlnoUg3jj0KVEYy56HVoobvUaEH73FDRuOBNA+mY8L4YWUgSMtj3pOSLXILfjrEVjKOPM7BD4HhvkswbdkEFo71nkh+otPIG9Ikbz3D7NUiMFADxLB94Z84DCO1hMR+A1ne3bC5Ldjvq00L7B6B50pMMlSTshQcu7Ikdx2y9LXf2LfhUz3VUXvz/CFdHwmnMzDwmy/IJTWG+s+EoTUu28BPPCp6PqihnJcsfk+UTtHa5jBQ2M1sAAAAASUVORK5CYII=;" vertex="1" parent="1">
                    <mxGeometry x="137.34" y="-86.5" width="30.66" height="40" as="geometry"/>
                </mxCell>
                <mxCell id="8" value="" style="rounded=0;whiteSpace=wrap;html=1;fillColor=#EDEDED;" vertex="1" parent="1">
                    <mxGeometry x="-26" y="-43" width="305" height="666" as="geometry"/>
                </mxCell>
                <mxCell id="9" value="" style="rounded=0;whiteSpace=wrap;html=1;fillColor=#EDEDED;" vertex="1" parent="1">
                    <mxGeometry x="-26" y="44" width="305" height="60" as="geometry"/>
                </mxCell>
                <mxCell id="10" value="" style="rounded=0;whiteSpace=wrap;html=1;fillColor=#EDEDED;" vertex="1" parent="1">
                    <mxGeometry x="-26" y="104" width="305" height="60" as="geometry"/>
                </mxCell>
                <mxCell id="11" value="" style="rounded=0;whiteSpace=wrap;html=1;fillColor=#EDEDED;" vertex="1" parent="1">
                    <mxGeometry x="-26" y="165" width="305" height="60" as="geometry"/>
                </mxCell>
                <mxCell id="12" value="" style="rounded=0;whiteSpace=wrap;html=1;fillColor=#EDEDED;" vertex="1" parent="1">
                    <mxGeometry x="-26" y="226" width="305" height="60" as="geometry"/>
                </mxCell>
                <mxCell id="13" value="" style="shape=image;verticalLabelPosition=bottom;labelBackgroundColor=#ffffff;verticalAlign=top;aspect=fixed;imageAspect=0;image=data:image/png,iVBORw0KGgoAAAANSUhEUgAAAB4AAAAgCAYAAAAFQMh/AAAA4klEQVRYCWN49+7d/4HADANhKcjOUYvpFt+jQT2QQX3j/9qpS/7PPPaYpo7AEscn/9cH1fyPW31nqFoM8YByUM1/5aCF/w+ilZBk+hgSHa1Tl/xvnbrv/xU0QyGlIU0sxm/oyLD44bHN/yFBD8sR+EOFzDjGNPT26r7/kIQEyxGYapBrwsFtMTHBSBMfE2MoMWpIDmpiDCVGzajFaJUBJBsgVxLEBCMxakgOasxUjVlWE6OGZIuRNVCLjbMAgZVC1KchVSQWi5GDEVTtURtDqlEsFtOnSzNqMVqepl2wD1hQAwCnCOhN7HgUGwAAAABJRU5ErkJggg==;" vertex="1" parent="1">
                    <mxGeometry x="-15" y="55" width="36.57" height="39" as="geometry"/>
                </mxCell>
                <mxCell id="14" value="&lt;font style=&quot;font-size: 21px&quot; color=&quot;#0066cc&quot;&gt;従業員情報管理&lt;/font&gt;" style="text;html=1;align=center;verticalAlign=middle;resizable=0;points=[];autosize=1;strokeColor=none;" vertex="1" parent="1">
                    <mxGeometry x="26" y="64" width="157" height="21" as="geometry"/>
                </mxCell>
                <mxCell id="16" value="" style="shape=image;verticalLabelPosition=bottom;labelBackgroundColor=#ffffff;verticalAlign=top;aspect=fixed;imageAspect=0;image=data:image/png,iVBORw0KGgoAAAANSUhEUgAAAB4AAAAgCAYAAAAFQMh/AAAA4klEQVRYCWN49+7d/4HADANhKcjOUYvpFt+jQT2QQX3j/9qpS/7PPPaYpo7AEscn/9cH1fyPW31nqFoM8YByUM1/5aCF/w+ilZBk+hgSHa1Tl/xvnbrv/xU0QyGlIU0sxm/oyLD44bHN/yFBD8sR+EOFzDjGNPT26r7/kIQEyxGYapBrwsFtMTHBSBMfE2MoMWpIDmpiDCVGzajFaJUBJBsgVxLEBCMxakgOasxUjVlWE6OGZIuRNVCLjbMAgZVC1KchVSQWi5GDEVTtURtDqlEsFtOnSzNqMVqepl2wD1hQAwCnCOhN7HgUGwAAAABJRU5ErkJggg==;" vertex="1" parent="1">
                    <mxGeometry x="-15" y="114.5" width="36.57" height="39" as="geometry"/>
                </mxCell>
                <mxCell id="17" value="&lt;font style=&quot;font-size: 21px&quot; color=&quot;#0066cc&quot;&gt;人事情報管理&lt;/font&gt;" style="text;html=1;align=center;verticalAlign=middle;resizable=0;points=[];autosize=1;strokeColor=none;" vertex="1" parent="1">
                    <mxGeometry x="37" y="123.5" width="136" height="21" as="geometry"/>
                </mxCell>
                <mxCell id="19" value="" style="shape=image;verticalLabelPosition=bottom;labelBackgroundColor=#ffffff;verticalAlign=top;aspect=fixed;imageAspect=0;image=data:image/png,iVBORw0KGgoAAAANSUhEUgAAAB4AAAAgCAYAAAAFQMh/AAAA4klEQVRYCWN49+7d/4HADANhKcjOUYvpFt+jQT2QQX3j/9qpS/7PPPaYpo7AEscn/9cH1fyPW31nqFoM8YByUM1/5aCF/w+ilZBk+hgSHa1Tl/xvnbrv/xU0QyGlIU0sxm/oyLD44bHN/yFBD8sR+EOFzDjGNPT26r7/kIQEyxGYapBrwsFtMTHBSBMfE2MoMWpIDmpiDCVGzajFaJUBJBsgVxLEBCMxakgOasxUjVlWE6OGZIuRNVCLjbMAgZVC1KchVSQWi5GDEVTtURtDqlEsFtOnSzNqMVqepl2wD1hQAwCnCOhN7HgUGwAAAABJRU5ErkJggg==;" vertex="1" parent="1">
                    <mxGeometry x="-15" y="175.5" width="36.57" height="39" as="geometry"/>
                </mxCell>
                <mxCell id="20" value="&lt;font color=&quot;#0066cc&quot;&gt;&lt;span style=&quot;font-size: 21px&quot;&gt;よく使う機能1&lt;/span&gt;&lt;/font&gt;" style="text;html=1;align=center;verticalAlign=middle;resizable=0;points=[];autosize=1;strokeColor=none;" vertex="1" parent="1">
                    <mxGeometry x="31" y="184.5" width="148" height="21" as="geometry"/>
                </mxCell>
                <mxCell id="22" value="" style="shape=image;verticalLabelPosition=bottom;labelBackgroundColor=#ffffff;verticalAlign=top;aspect=fixed;imageAspect=0;image=data:image/png,iVBORw0KGgoAAAANSUhEUgAAAB4AAAAgCAYAAAAFQMh/AAAA4klEQVRYCWN49+7d/4HADANhKcjOUYvpFt+jQT2QQX3j/9qpS/7PPPaYpo7AEscn/9cH1fyPW31nqFoM8YByUM1/5aCF/w+ilZBk+hgSHa1Tl/xvnbrv/xU0QyGlIU0sxm/oyLD44bHN/yFBD8sR+EOFzDjGNPT26r7/kIQEyxGYapBrwsFtMTHBSBMfE2MoMWpIDmpiDCVGzajFaJUBJBsgVxLEBCMxakgOasxUjVlWE6OGZIuRNVCLjbMAgZVC1KchVSQWi5GDEVTtURtDqlEsFtOnSzNqMVqepl2wD1hQAwCnCOhN7HgUGwAAAABJRU5ErkJggg==;" vertex="1" parent="1">
                    <mxGeometry x="-15" y="236.5" width="36.57" height="39" as="geometry"/>
                </mxCell>
                <mxCell id="23" value="&lt;font color=&quot;#0066cc&quot;&gt;&lt;span style=&quot;font-size: 21px&quot;&gt;よく使う機能2&lt;/span&gt;&lt;/font&gt;" style="text;html=1;align=center;verticalAlign=middle;resizable=0;points=[];autosize=1;strokeColor=none;" vertex="1" parent="1">
                    <mxGeometry x="31" y="245.5" width="148" height="21" as="geometry"/>
                </mxCell>
                <mxCell id="25" value="" style="shape=image;verticalLabelPosition=bottom;labelBackgroundColor=#ffffff;verticalAlign=top;aspect=fixed;imageAspect=0;image=data:image/png,iVBORw0KGgoAAAANSUhEUgAAALIAAAAmCAYAAABgfcE9AAAHZklEQVR4Ae2aPWsbSxSG72+ZP7KoN6RIKXAhcJEqgsBFBC5yEZwiOAQibpElRUTALIbABgx7ISBDQCoEWwS2MKsirArDFoYtDFsI3svszFnNjkYfK8tO5EzArKwZz86cec57zpzJX4wx2B9rg31n4K99X4Cdv3VCzoAF2UakRxGRLcgWZAuyDes2rP8uDFhFtopsFfl38UY7DxsZrCJbRbaKzJ500DvzEVwE8M966DyxymCjw69hYEtFdtD+HCGD/i9D9LkNx6rco1C5fXLKrUB23ofIdYbL33OE7x27kXdwZm/CjZlh+EpVtwN0v8QIz9TvdvvZee5i+CPAiTJ381x2+95dOMwWILcxSEtqzR/SAdqKMXYx0T9pDBM83e8i/sXn9wWRh7jwn+GfArJcsBlh+W0Mz4K8dVQygXwysiCvErMtFNmCvMqgu2izINePOluA/FCpBc8JI6TqiTLPkP7w0TVURw6OfUTXSufZ8r6s0UV/FCNTEv3sOoJ/fKCpqIP2+wDxjdJx2bjnRWBGfM4PwmFl3sXY/xjODUcuBpMM+UwGstsU0Zcu/EqOfIKhsiwKhEWK8WpYHLizkQt3LPO9WY4sdPFUtmHiaWtiYHqbnDuNXTwzkWKUTvW6DXeUIKO5kh0a9aHbhbPrY2wBMsP9H/YcUChFniG5ihFfxUhvpalvqnlc6zwuD5/5teib3Mi+eQzvSDF24wRDapvJsadESobhawLOwcn3+WEgk+OWc9DHlTCkEzGX/CapznkWwztU5nHkISb/kH3LOQuS5GGvDW8cg9pofcHbOZD5LR8oB393fJ0h/tpchFVN9XSQ3waIr1JhQ7LJ2CvOOQJkIJdzzabcvgrQ0wAtdexf9Lk+yI0mnr14hs7S8lunaG/eyVNl+nIbolcZp4VgyvcsxfCNhOIoQMI3fpZiUELI2xx0LxKxORMPTWng07HYkXzio62MXTpDOkCH96XNzhMEFTU9wKnMV0F9ef9S1XLE5y1FBVvwfwqnSr+15fdNECDZ6EQpVyoOrFUtyLErhz2aIwyVImrbRJEL26w67HGbx/Cfk5MzsCMfSaHOKQYvFAeVdtYVk35/9+6dVJj1D96X/m7dsxbIrQ8hUhla8ukQ/eNu9ULkpYvhVLruLEX4Qd3QzRfLmDTqLKkaz2Ck9jehmullx7BoCssJgkINXUTF/BP4qjoW43aKakx+G8N7ytALxTrM454iLKKDUiIjkE0VG9nGoS02pKE46sKaDGMzVkYoI8jc4fVxdgxyctFcsG+ZdlTKhOv3eROY60DMbbo5yIceYsqPVGfKc/DQRqFHbQJMwKxfKGNNeFfSIbgYZCni8QD9Ny0caBtGykYhl6cg6g+lAtFHBnYsckrcDNHVxql6fFMov6aKah8CvQSLQI7chQ0ntS5Bfi3nYVJLxuBG3IqKk6wD+aevqLq0745BLuyn2YxsH29R214Fc12Ia4FMylcFdf1v83C6CcBKn4Z2uKBXzXIkI7fMy8iY1LzsqR6OjAegyiaRkldhUkFeCPW66qrj6W0E/RKQxdjVdy+8j49fG9ZVkK9KLapzITuQ7UtnVte8wWcTzNtAXANkUqhlmKz4fhqU+SkZoN7TQfNlD95liPh6rtLpN5FKCGPyHFFxgmVGfABFLlVXnYMO8hpFFmpfhecxgsw5UGHeFuIaIPdkTrgC2GVNpvxN3WTT509hkarkYW8hTDufirgLUlXa4Hx8utCXMZlv8gPbSw465cgxPOWgJxzLQZ8PnWcI/90+R94IZMqRZxH6C/MQuXqt1MKk7KTWBiFpXhTH49KGYv0Pr8jivQLmu0BcA2S5yGWwrvx+i1u+Q19WIvTDnoP2f2ITSnD/HkAc9zIM36p1YKUCUFYXnPIQl0+8Mj3hhnBIJfMILoeLQKhZtdgIZObAjUR04TXfeflKqbRoOTJdUVcOXTRHE8jkLEgQqOXHIxcRVRsrf2c+gIqIV40OBOBdUwsaZxfPDQ97DwwyP9zI/1vAfUTULnktVaYWWg2381WW2big6nXkWarUhhmYWke+TcXBsKwjq6WzdXVkrdynpw9qpDG1HSpAyXmUteJimRo8Z+LChZce+WFWrSNTdKoCMXcWzGSNeSovX65T4fwVkLtlfb2wd6WOrM1Frm0PQabDz0rpNTfKG6KqkTfIZ3kduLjZm+fFKG6TAvTUeqY0Kt3slbdk/IZrMoBr6Fvc7I2TzW72Pg6qN3vLbhdNsBLMy9qedOH/SOe3ZXmG+NKFW9SpNXgaXQQTklKgOESvUmT+bn5gvlRuMLn9xn20Sa0rIDMU5VUy9yyCy5isd2tz2V+QGcoLAzOuS75VFW4TeG2f+g5vbcZttmFqIYx1cNxHMIoqdVq1Zqt+jkYB+gv/d8Ea3YJ6PwzUAtluwv1sgrXr3e1qQaY81j4N5cu7A/ZQTmpBtgDvNcDkKBZkC7IFmbzBPvcnBD/WvbKKbBXZKvJj9W67rv2LMFaRrSJbRbbKtX/K9Vj3zCqyVWSryI/Vu+269i/S/A/faWlwntCerQAAAABJRU5ErkJggg==;" vertex="1" parent="1">
                    <mxGeometry x="1198.0044274902343" y="-84.50467079162598" width="178" height="38" as="geometry"/>
                </mxCell>
                <mxCell id="26" value="" style="rounded=0;whiteSpace=wrap;html=1;fillColor=#FFFFFF;" vertex="1" parent="1">
                    <mxGeometry x="1205" y="-40" width="174" height="44" as="geometry"/>
                </mxCell>
                <mxCell id="27" value="" style="shape=image;verticalLabelPosition=bottom;labelBackgroundColor=#ffffff;verticalAlign=top;aspect=fixed;imageAspect=0;image=data:image/png,iVBORw0KGgoAAAANSUhEUgAAAJgAAAAoCAYAAAACCDNUAAAFWUlEQVR4Ae2a2ys9URTHf/+TB3nw4IEoLx7kkktElAchRUqUkAckt7yIIimFUpTLg1uKhFxSLrnlktuDa1i/vrvWNGfOHOfsc8zv5zRr6jTM2XvN3t/9OWutvWb+kByigIMK/HHQtpgWBUgAEwgcVUAAc1ReMS6ACQOOKiCAOSqvGBfAhAFHFRDAHJVXjAtgwoCjCghgjsorxgUwYcBRBQQwR+UV4wKYMOCoAgKYo/KKcQFMGHBUAW3ALi4uqLy8nCIjIykiIsL4VFdX09vbmxrs09MTjY2N0fX19Y8M/vDwkBITE6mqqopeXl5+xOZvNfL5+UkLCwu0vb39W4eoNS4twE5PTyk5OZmys7Opo6ODuru7jc/c3Bx9fHyomzMQ+fn5dHl5qTUgu8Zszw2ATUxMqB/t2tqanRRhd00LsMHBQUpPT/cLDQMBD/cTkLE9NwAGzw/dXAlYW1tbQGGKgeAQGipkbE8ACzsHpvfCoRUw5FxTU1NGmOSQ2djYSNHR0UZ+FqonCwaw5+dnGhkZodTUVDWOqKgolTvu7u7S19eX10oht6yrq6OYmBiVXxYVFdHOzg5hzsj/MAY+kCetrq5ScXExwS7ml5GRQZOTk0Yeym3t+tt9h9wSPyD+UfI53D2ZVoi0AsYLz2L4Owfryfg+gXqwm5sbAiAYDxYe466vrzfgQRgyQ3ZwcEBJSUkKLECD/DIvL0+1B1xmwJBn9vT0qLZxcXHU0NCg7KekpKj7YbODTQ4fgQL2/v5O4+PjVFJSouzU1NSoH+7x8TGbCsvzPwUMCx4MZDqAAYDOzk4FwPDwsLHxwOpgw4H7w0ttbm6qBYMXrq2tVdeWlpYM8GBnaGhILbYZsJWVFeWdKysr6eHhwVh02MF9Mcfe3l7DTqCAsSHJwUylAl54f57L+j1E1zn4PoF4sKurK0pLS6PCwkJ6fHz0us3i4qKCr729XUGwv79P8fHx1NTU5AEjOqI/7DBggA7tEP43Nja8bKMsk5mZSTk5OXR3d6e+F8C8ZPJ9AWKZF5kX3grQd/877cH29vYoNjZWhS27mTCAPI/p6WnldeA5rAfCaGtrqwEYQl9paakq09zf31ubK0ABIAOJBgKYl0y+L4QKWDBwYTQMMkPhe4SktvcAHGO1OwAG6nhsi0PS8vKyXXMPQLgv+tsBBgNWoKz/m29i9x2PJ9yTe55nSDkYQsbMzMyv2kX+pAezAiMejLEJ/BwSYL5uwx6HQ2Wwnovtsz32Onzd7swhMNAcjIF0MgdDyMZ9zAfDag6n+N7VHiwcKvm6u0iuP2Fnad5FotY1OjqqNgRmCHR3kQwMdqRcGsF5dnZWbRbMtgEYPyqan5838xi2f2t5sO+eRWJxsLg42OOE6rlYVbYHCLBLy8rKsv1sbW2pLv7qYP39/cZY0YHrYCiaIonnOhg8T0JCgkfSjjl+VwdD/9vbWx46sWZ4OYBrbAUFBcpuRUWFh210Wl9fV1BjJ4xxuKoOBgH+59sUHHJ9nc2JMSr5AwMDRiUfcGJBA63kl5WVqUo+wjIWG6GXD3g3bApQzAWUgAelCbtKPvqcnZ0ZTwn4icLR0ZEKh1YP9vr6Sl1dXaouh3lilxvOh5YHC+eJBjN2QIqCam5urm1NLRibbuvjesDOz8/V4yTUu/h9NkCAPAlhH56vubnZI6S6DZJQ5ut6wJBTtbS0qGIrP7fEQ3vkSwh9yPdOTk5C0djVfV0PGFYfngv5E/IoflMXD7/7+vp8FlRdTY3G5AUwDbGkqb4CApi+ZtJDQwEBTEMsaaqvgACmr5n00FBAANMQS5rqKyCA6WsmPTQU+Asl9/NSMv2cUgAAAABJRU5ErkJggg==;" vertex="1" parent="1">
                    <mxGeometry x="1216.00216796875" y="-38.0044580078125" width="152" height="40" as="geometry"/>
                </mxCell>
                <mxCell id="28" value="" style="shape=image;verticalLabelPosition=bottom;labelBackgroundColor=#ffffff;verticalAlign=top;aspect=fixed;imageAspect=0;image=data:image/png,iVBORw0KGgoAAAANSUhEUgAAAB4AAAAfCAYAAADwbH0HAAAAyUlEQVRIDWN49+7d/4HADANhKcjOUYvpFt+jQY0/qN/c+L9589n/L6iQBYkP6jc3/s8vr/mvHNT+f9JFyvM+cRbDLW3+X3/wMf5QITI0CFtMA0sJFyA0shS/xTS0FK/FL44t+e8SVPNfOX/9/7NvKE9MIMuQMd44fnhwIdhyzfLN/69Q2XK8FoNcSCvLCVpMK8uJspgWlhNtMdzyyEn/l91CTSggOVIxSRaTajg+9aMWkxxX+IITn9xoUI8GNc1CYDRx0Sxo0fM0AMJzl+RSsBcjAAAAAElFTkSuQmCC;" vertex="1" parent="1">
                    <mxGeometry x="239.49216796874998" y="58.998034362792964" width="30" height="31" as="geometry"/>
                </mxCell>
                <mxCell id="30" value="" style="shape=image;verticalLabelPosition=bottom;labelBackgroundColor=#ffffff;verticalAlign=top;aspect=fixed;imageAspect=0;image=data:image/png,iVBORw0KGgoAAAANSUhEUgAAAB4AAAAfCAYAAADwbH0HAAAAyUlEQVRIDWN49+7d/4HADANhKcjOUYvpFt+jQY0/qN/c+L9589n/L6iQBYkP6jc3/s8vr/mvHNT+f9JFyvM+cRbDLW3+X3/wMf5QITI0CFtMA0sJFyA0shS/xTS0FK/FL44t+e8SVPNfOX/9/7NvKE9MIMuQMd44fnhwIdhyzfLN/69Q2XK8FoNcSCvLCVpMK8uJspgWlhNtMdzyyEn/l91CTSggOVIxSRaTajg+9aMWkxxX+IITn9xoUI8GNc1CYDRx0Sxo0fM0AMJzl+RSsBcjAAAAAElFTkSuQmCC;" vertex="1" parent="1">
                    <mxGeometry x="239.49216796874998" y="118.49803436279296" width="30" height="31" as="geometry"/>
                </mxCell>
                <mxCell id="32" style="rounded=0;orthogonalLoop=1;jettySize=auto;html=1;endArrow=none;endFill=0;entryX=0.164;entryY=0.246;entryDx=0;entryDy=0;entryPerimeter=0;" edge="1" parent="1" source="31" target="4">
                    <mxGeometry relative="1" as="geometry">
                        <mxPoint x="-33.88025919596339" y="-66.09955469767249" as="targetPoint"/>
                    </mxGeometry>
                </mxCell>
                <mxCell id="31" value="&lt;font style=&quot;font-size: 21px&quot;&gt;①&lt;/font&gt;" style="whiteSpace=wrap;html=1;aspect=fixed;" vertex="1" parent="1">
                    <mxGeometry x="-168" y="-193" width="44" height="44" as="geometry"/>
                </mxCell>
                <mxCell id="34" style="edgeStyle=none;rounded=0;orthogonalLoop=1;jettySize=auto;html=1;entryX=0.5;entryY=0;entryDx=0;entryDy=0;endArrow=none;endFill=0;" edge="1" parent="1" source="33" target="7">
                    <mxGeometry relative="1" as="geometry"/>
                </mxCell>
                <mxCell id="33" value="&lt;span style=&quot;font-size: 21px&quot;&gt;②&lt;/span&gt;" style="whiteSpace=wrap;html=1;aspect=fixed;" vertex="1" parent="1">
                    <mxGeometry x="67" y="-244" width="44" height="44" as="geometry"/>
                </mxCell>
                <mxCell id="36" style="edgeStyle=none;rounded=0;orthogonalLoop=1;jettySize=auto;html=1;endArrow=none;endFill=0;entryX=0.476;entryY=-0.451;entryDx=0;entryDy=0;entryPerimeter=0;" edge="1" parent="1" source="35" target="6">
                    <mxGeometry relative="1" as="geometry">
                        <mxPoint x="201" y="-105.91438929239905" as="targetPoint"/>
                    </mxGeometry>
                </mxCell>
                <mxCell id="35" value="&lt;span style=&quot;font-size: 21px&quot;&gt;③&lt;/span&gt;" style="whiteSpace=wrap;html=1;aspect=fixed;" vertex="1" parent="1">
                    <mxGeometry x="179" y="-250" width="44" height="44" as="geometry"/>
                </mxCell>
                <mxCell id="38" style="edgeStyle=none;rounded=0;orthogonalLoop=1;jettySize=auto;html=1;endArrow=none;endFill=0;entryX=0.076;entryY=0.168;entryDx=0;entryDy=0;entryPerimeter=0;" edge="1" parent="1" source="37" target="25">
                    <mxGeometry relative="1" as="geometry">
                        <mxPoint x="1211.4898681640625" y="-106.84031804402662" as="targetPoint"/>
                    </mxGeometry>
                </mxCell>
                <mxCell id="37" value="&lt;span style=&quot;font-size: 21px&quot;&gt;④&lt;/span&gt;" style="whiteSpace=wrap;html=1;aspect=fixed;" vertex="1" parent="1">
                    <mxGeometry x="1161" y="-247" width="44" height="44" as="geometry"/>
                </mxCell>
                <mxCell id="40" style="edgeStyle=none;rounded=0;orthogonalLoop=1;jettySize=auto;html=1;endArrow=none;endFill=0;entryX=0.5;entryY=0;entryDx=0;entryDy=0;" edge="1" parent="1" source="39" target="25">
                    <mxGeometry relative="1" as="geometry">
                        <mxPoint x="1292" y="-98.50698471069336" as="targetPoint"/>
                    </mxGeometry>
                </mxCell>
                <mxCell id="39" value="&lt;font style=&quot;font-size: 21px&quot;&gt;⑤&lt;/font&gt;" style="whiteSpace=wrap;html=1;aspect=fixed;" vertex="1" parent="1">
                    <mxGeometry x="1270" y="-250" width="44" height="44" as="geometry"/>
                </mxCell>
                <mxCell id="43" style="edgeStyle=none;rounded=0;orthogonalLoop=1;jettySize=auto;html=1;endArrow=none;endFill=0;" edge="1" parent="1" source="41">
                    <mxGeometry relative="1" as="geometry">
                        <mxPoint x="1332" y="-15" as="targetPoint"/>
                    </mxGeometry>
                </mxCell>
                <mxCell id="41" value="&lt;font style=&quot;font-size: 21px&quot;&gt;⑥&lt;/font&gt;" style="whiteSpace=wrap;html=1;aspect=fixed;" vertex="1" parent="1">
                    <mxGeometry x="1496" y="-157" width="44" height="44" as="geometry"/>
                </mxCell>
                <mxCell id="45" style="edgeStyle=none;rounded=0;orthogonalLoop=1;jettySize=auto;html=1;endArrow=none;endFill=0;" edge="1" parent="1" source="44">
                    <mxGeometry relative="1" as="geometry">
                        <mxPoint x="1258" y="12" as="targetPoint"/>
                    </mxGeometry>
                </mxCell>
                <mxCell id="44" value="&lt;font style=&quot;font-size: 21px&quot;&gt;⑦&lt;/font&gt;" style="whiteSpace=wrap;html=1;aspect=fixed;" vertex="1" parent="1">
                    <mxGeometry x="1496" y="52" width="44" height="44" as="geometry"/>
                </mxCell>
                <mxCell id="47" style="edgeStyle=none;rounded=0;orthogonalLoop=1;jettySize=auto;html=1;endArrow=none;endFill=0;" edge="1" parent="1" source="46" target="13">
                    <mxGeometry relative="1" as="geometry"/>
                </mxCell>
                <mxCell id="46" value="&lt;font style=&quot;font-size: 21px&quot;&gt;⑧&lt;/font&gt;" style="whiteSpace=wrap;html=1;aspect=fixed;" vertex="1" parent="1">
                    <mxGeometry x="-208" y="-43" width="44" height="44" as="geometry"/>
                </mxCell>
                <mxCell id="50" style="edgeStyle=none;rounded=0;orthogonalLoop=1;jettySize=auto;html=1;entryX=0;entryY=0.75;entryDx=0;entryDy=0;endArrow=none;endFill=0;" edge="1" parent="1" source="48" target="28">
                    <mxGeometry relative="1" as="geometry"/>
                </mxCell>
                <mxCell id="48" value="&lt;font style=&quot;font-size: 21px&quot;&gt;⑩&lt;/font&gt;" style="whiteSpace=wrap;html=1;aspect=fixed;" vertex="1" parent="1">
                    <mxGeometry x="-225" y="205.5" width="44" height="44" as="geometry"/>
                </mxCell>
                <mxCell id="53" style="edgeStyle=none;rounded=0;orthogonalLoop=1;jettySize=auto;html=1;entryX=0.381;entryY=1.294;entryDx=0;entryDy=0;endArrow=none;endFill=0;entryPerimeter=0;" edge="1" parent="1" source="51" target="20">
                    <mxGeometry relative="1" as="geometry"/>
                </mxCell>
                <mxCell id="51" value="&lt;font style=&quot;font-size: 21px&quot;&gt;⑪&lt;/font&gt;" style="whiteSpace=wrap;html=1;aspect=fixed;" vertex="1" parent="1">
                    <mxGeometry x="-212" y="319" width="44" height="44" as="geometry"/>
                </mxCell>
                <mxCell id="55" style="edgeStyle=none;rounded=0;orthogonalLoop=1;jettySize=auto;html=1;entryX=0.415;entryY=1.3;entryDx=0;entryDy=0;entryPerimeter=0;endArrow=none;endFill=0;" edge="1" parent="1" source="54" target="14">
                    <mxGeometry relative="1" as="geometry"/>
                </mxCell>
                <mxCell id="54" value="&lt;span style=&quot;font-size: 21px&quot;&gt;⑨&lt;/span&gt;" style="whiteSpace=wrap;html=1;aspect=fixed;" vertex="1" parent="1">
                    <mxGeometry x="-227" y="96" width="44" height="44" as="geometry"/>
                </mxCell>
            </root>
        </mxGraphModel>
    </diagram>
</mxfile>